<svg width="80" height="80" viewBox="0 0 80 80" fill="none" xmlns="http://www.w3.org/2000/svg">
  <!-- 背景圆 -->
  <circle cx="40" cy="40" r="38" fill="#F5F7FA" stroke="#E1E8ED" stroke-width="2"/>
  
  <!-- 床的主体 -->
  <g transform="translate(20, 30)">
    <!-- 床垫 -->
    <rect x="0" y="10" width="40" height="12" rx="2" fill="#D1D9E6"/>
    <rect x="2" y="8" width="36" height="10" rx="2" fill="#E8EDF4"/>
    
    <!-- 床头板 -->
    <rect x="0" y="0" width="3" height="20" rx="1.5" fill="#B8C5D6"/>
    
    <!-- 床尾板 -->
    <rect x="37" y="0" width="3" height="20" rx="1.5" fill="#B8C5D6"/>
    
    <!-- 床腿 -->
    <rect x="2" y="22" width="2" height="6" rx="1" fill="#A8B5C9"/>
    <rect x="36" y="22" width="2" height="6" rx="1" fill="#A8B5C9"/>
  </g>
  
  <!-- 离开指示器 - 向上箭头 -->
  <g transform="translate(40, 20)">
    <!-- 箭头主体 -->
    <path d="M0 0 L-6 8 L-2 8 L-2 20 L2 20 L2 8 L6 8 Z" fill="#FF6B6B"/>
    
    <!-- 小人图标（淡化） -->
    <g transform="translate(0, -8)" opacity="0.7">
      <circle cx="0" cy="0" r="4" fill="#FF8C8C"/>
      <path d="M-3 6 L0 4 L3 6 M-4 10 L0 8 L4 10" stroke="#FF8C8C" stroke-width="1.5" stroke-linecap="round" fill="none"/>
    </g>
  </g>
  
  <!-- 禁止标记（表示不在床上） -->
  <circle cx="40" cy="50" r="16" fill="none" stroke="#FF6B6B" stroke-width="3" opacity="0.3"/>
  <line x1="28" y1="50" x2="52" y2="50" stroke="#FF6B6B" stroke-width="3" opacity="0.3" stroke-linecap="round"/>
</svg>
