<?xml version="1.0" standalone="no"?><!DOCTYPE svg PUBLIC "-//W3C//DTD SVG 1.1//EN" "http://www.w3.org/Graphics/SVG/1.1/DTD/svg11.dtd"><svg t="1764218501130" class="icon" viewBox="0 0 1024 1024" version="1.1" xmlns="http://www.w3.org/2000/svg" p-id="2119" xmlns:xlink="http://www.w3.org/1999/xlink" width="200" height="200"><path d="M938.666667 972.8a34.133333 34.133333 0 0 1-34.133334-34.133333V597.333333a34.133333 34.133333 0 0 1 68.266667 0v341.333334a34.133333 34.133333 0 0 1-34.133333 34.133333zM85.333333 972.8a34.133333 34.133333 0 0 1-34.133333-34.133333V426.666667a34.133333 34.133333 0 0 1 68.266667 0v512a34.133333 34.133333 0 0 1-34.133334 34.133333z m256-341.333333H170.666667a34.133333 34.133333 0 0 1 0-68.266667h170.666666a34.133333 34.133333 0 0 1 0 68.266667z m171.52-170.666667a34.133333 34.133333 0 0 1-34.133333-34.133333v-136.533334H341.333333a34.133333 34.133333 0 0 1 0-68.266666h137.386667V85.333333a34.133333 34.133333 0 0 1 68.266667 0v136.533334H682.666667a34.133333 34.133333 0 0 1 0 68.266666h-135.68v136.533334a34.133333 34.133333 0 0 1-34.133334 34.133333z" p-id="2120" fill="#13227a"></path><path d="M938.666667 870.4H85.333333a17.066667 17.066667 0 1 1 0-34.133333h853.333334a17.066667 17.066667 0 1 1 0 34.133333z m0-85.333333H426.666667a17.066667 17.066667 0 0 1-17.066667-17.066667v-68.266667H85.333333a17.066667 17.066667 0 1 1 0-34.133333h324.266667v-68.266667a17.066667 17.066667 0 0 1 17.066667-17.066666h512a17.066667 17.066667 0 1 1 0 34.133333H529.066667v136.533333h409.6a17.066667 17.066667 0 1 1 0 34.133334z m-494.933334-34.133334h51.2v-136.533333h-51.2v136.533333z" p-id="2121" fill="#13227a"></path></svg>