<?xml version="1.0" standalone="no"?><!DOCTYPE svg PUBLIC "-//W3C//DTD SVG 1.1//EN" "http://www.w3.org/Graphics/SVG/1.1/DTD/svg11.dtd"><svg t="1764529023602" class="icon" viewBox="0 0 1024 1024" version="1.1" xmlns="http://www.w3.org/2000/svg" p-id="11154" xmlns:xlink="http://www.w3.org/1999/xlink" width="200" height="200"><path d="M896 704h96v160h-96zM32 704h96v160H32zM384 368c26.24 0 48 21.76 48 48s-21.76 48-48 48H256c-26.24 0-48-21.76-48-48s21.76-48 48-48h128z" fill="#1afa29" p-id="11155"></path><path d="M992 480H384c35.296 0 64-28.704 64-64s-28.704-64-64-64H256c-35.296 0-64 28.704-64 64s28.704 64 64 64H192V160a32 32 0 0 0-32-32H32a32 32 0 0 0-32 32v704a32 32 0 0 0 32 32h96a32 32 0 0 0 32-32v-128h704v128a32 32 0 0 0 32 32h96a32 32 0 0 0 32-32V512a32 32 0 0 0-32-32zM224 416c0-17.344 14.656-32 32-32h128c17.344 0 32 14.656 32 32s-14.656 32-32 32H256c-17.344 0-32-14.656-32-32zM64 192h64v288H64V192z m32 640H64v-96h32v96z m384-160H64v-128h416v128z m480 160h-32v-96h32v96z m0-160H512v-128h448v128z" fill="#1afa29" p-id="11156"></path></svg>