<?xml version="1.0" standalone="no"?><!DOCTYPE svg PUBLIC "-//W3C//DTD SVG 1.1//EN" "http://www.w3.org/Graphics/SVG/1.1/DTD/svg11.dtd"><svg t="1764644688548" class="icon" viewBox="0 0 1024 1024" version="1.1" xmlns="http://www.w3.org/2000/svg" p-id="5492" xmlns:xlink="http://www.w3.org/1999/xlink" width="200" height="200"><path d="M575.7 202.1h76.4l3.6-42.4-41.8-7-41.8 7 3.6 42.4zM276.9 560.5h62.3c-13.8-24-48.4-24-62.3 0zM161.2 896.3V560.5h89.7c13.4-42.7 67.7-56.4 99.6-24.4 6.7 6.7 11.9 15.1 14.8 24.4h96.5c3-43 11.5-109 23.3-147 5.2-16.8 30.4-23.3 46.6-30.3 6.9-3 27.2-5.5 34.4-7.5 2.3 19.1 16.3 37 34.2 55.7l-17.1 23.1c-1.6 2.1-2.3 4.6-2.3 7.1v99h24v-95.1l37.8-51.3c10.2-12.7 17.3-25.3 18.9-38.5 7.2 2 27.5 4.5 34.4 7.5 16.2 7 41.4 13.6 46.6 30.3 11.8 38.1 20.3 104.1 23.3 147h96.9v335.9h-36V596.5H197.1v299.9h-35.9v-0.1z m71.9 0h36v-78h488.8v78h36v-114H233.1v114z m436.1-620.1c-26.8-1.3-61.4-26.2-68.8-50.1h-0.9c-5.7 21.4-21.9 33.8-41 37.5-0.9 39.5 11.5 66 26.6 81.6-18.4 2.4-50.2 3.4-61.9 2.4-25.7-49.1-10.5-123.7 27.2-160.6l-3.1-36.3c-0.5-6.5 4.2-12.2 10.6-12.9l54-9c1.4-0.2 2.8-0.2 4.2 0l54.4 9.1c6.2 1 10.5 6.6 10 12.8l-3.1 36.3c37.6 36.7 52.9 111.5 27.2 160.6-9.3 1.3-45.8 0-61.9-2.4 11.4-11.8 25.4-35.4 26.5-69z" fill="#e98f36" p-id="5493"></path><path d="M248.7 519.1c-4.7 4.7-12.3 4.7-17 0-4.7-4.7-4.7-12.3 0-17 19.6-19.5 46.5-31.6 76.3-31.6 14.5 0 28.5 2.9 41.2 8.2 13.3 5.5 25.2 13.5 35.1 23.4 4.7 4.7 4.7 12.3 0 17-4.7 4.7-12.3 4.7-17 0-7.8-7.8-17-14-27.2-18.3-9.8-4.1-20.7-6.3-32.1-6.3-23.1 0-44.1 9.4-59.3 24.6zM491 626.3h42v42.2l42-0.2v42.2h-42v42h-42v-42h-42v-42h42v-42.2z" fill="#e98f36" p-id="5494"></path></svg>