<?xml version="1.0" standalone="no"?><!DOCTYPE svg PUBLIC "-//W3C//DTD SVG 1.1//EN" "http://www.w3.org/Graphics/SVG/1.1/DTD/svg11.dtd"><svg t="1735176347835" class="icon" viewBox="0 0 1107 1024" version="1.1" xmlns="http://www.w3.org/2000/svg" p-id="16579" xmlns:xlink="http://www.w3.org/1999/xlink" width="216.2109375" height="200"><path d="M236.843537 170.666667l12.538776-12.538776L550.312925 459.058503l69.659864-69.659864c-6.965986-30.65034 2.089796-63.390476 25.077551-85.681632 36.223129-36.223129 95.434014-36.223129 130.960544 0 36.223129 36.223129 36.223129 95.434014 0 130.960544-22.291156 22.291156-55.031293 31.346939-85.681632 25.077551l-69.659864 69.659864 300.930612 300.930612-12.538776 12.538776m-36.919727-12.538776L571.210884 529.414966l109.365987-109.365986 10.448979 3.482993c20.897959 7.662585 44.582313 2.089796 60.604082-13.235374 22.291156-22.291156 22.291156-59.210884 0-82.19864-22.291156-22.291156-59.210884-22.291156-82.198639 0-16.021769 16.021769-20.897959 39.706122-13.235375 60.604082l3.482994 10.448979L550.312925 508.517007 249.382313 207.586395" p-id="16580"></path><path d="M569.817687 982.204082c-128.17415 0-248.685714-50.155102-339.243537-140.712926S89.861224 630.421769 89.861224 502.247619c0-128.17415 50.155102-248.685714 140.712926-339.243537l12.538775-12.538776 679.183674 679.183674-12.538776 12.538775c-91.254422 90.557823-211.765986 140.016327-339.940136 140.016327zM243.112925 199.92381c-76.62585 82.198639-118.421769 189.47483-118.421769 302.323809 0 119.118367 45.97551 230.57415 130.263946 314.862585S450.69932 947.37415 569.817687 947.37415c112.84898 0 219.428571-41.795918 302.32381-118.421769L243.112925 199.92381zM192.957823 971.058503c-18.808163 0-37.616327-6.965986-51.548299-21.594557L132.353741 940.408163c-28.560544-28.560544-28.560544-75.232653 0-103.793197l27.863946-27.863946 24.380952 24.380953-27.863945 27.863945c-14.628571 15.32517-14.628571 39.009524 0 54.334694l9.055782 9.055783c14.628571 14.628571 39.009524 14.628571 54.334694 0l27.167347-27.167347 24.380952 24.380952-27.167347 27.167347c-13.931973 14.628571-32.740136 22.291156-51.548299 22.291156zM966.878912 390.095238h-34.829932c0-111.455782-90.557823-202.013605-202.013606-202.013605v-34.829932c130.960544 0 236.843537 105.882993 236.843538 236.843537z" p-id="16581"></path><path d="M1080.42449 390.095238h-34.829932c0-174.14966-141.409524-315.559184-315.559184-315.559184v-34.829932c192.957823 0 350.389116 156.734694 350.389116 350.389116z" p-id="16582"></path></svg>