<?xml version="1.0" standalone="no"?><!DOCTYPE svg PUBLIC "-//W3C//DTD SVG 1.1//EN" "http://www.w3.org/Graphics/SVG/1.1/DTD/svg11.dtd"><svg t="1764825995699" class="icon" viewBox="0 0 1024 1024" version="1.1" xmlns="http://www.w3.org/2000/svg" p-id="15576" xmlns:xlink="http://www.w3.org/1999/xlink" width="200" height="200"><path d="M788.081907 631.022437a133.058846 133.058846 0 0 0-36.771203 5.056237L484.081578 370.305368c-12.757995-12.757995-36.28593-18.784778-69.973299-18.017733-15.653982 0.375696-42.610139 2.301135-56.182141 10.660362-83.639225 50.296244-159.827156 137.598501-214.459553 245.767516C90.88486 712.767531 61.924993 827.307717 61.924993 931.187541c0 9.392389-0.485273 16.98457-0.954893 24.388904-0.923585 14.511241-1.831516 28.130206 1.142741 48.182956L65.087097 1023.780844h572.935739V796.610258a74.137258 74.137258 0 0 0 134.029394 3.61607H780.129684V766.272841a6.872098 6.872098 0 0 1 13.728543 0v257.727159h128.190458V766.429381a133.716314 133.716314 0 0 0-133.982432-135.406944zM591.045237 976.818898H107.008461c0-5.901551 0.344388-11.599601 0.767045-18.205581 0.485273-7.826991 1.048817-16.546259 1.048817-27.347506 0-203.987039 120.050387-435.947743 273.302871-528.102735 4.508347-1.393204 18.252543-3.741302 35.158843-3.960457 21.508571-0.266118 31.668005 3.209066 33.812601 4.586617l254.925096 253.594507a169.063005 169.063005 0 0 0-41.420436 39.74546 213.786431 213.786431 0 0 0-20.350177 33.280366l-53.223538-53.223539z m284.057156 0.203502h-34.266567V766.272841a53.834044 53.834044 0 0 0-107.652433 0v2.802063l-0.62616 3.130797a27.065735 27.065735 0 0 1-28.177167 21.774688 27.410122 27.410122 0 0 1-25.375105-22.44781c1.033163-5.244084 5.54151-22.29127 23.480973-46.554942a121.16182 121.16182 0 0 1 41.74917-35.738041l10.06551-4.383115a82.856526 82.856526 0 0 1 33.796947-6.809482 86.72306 86.72306 0 0 1 87.020486 87.959725z" p-id="15577"></path><path d="M962.044609 148.598022c-4.038727-14.871283-18.956972-28.177167-44.316423-39.338457-12.053566-5.338008-33.906525-13.415463-51.141559-10.957787l-38.947107-43.956381c-5.604126-6.261593-33.21775-34.642262-56.260411-47.901185-8.312264-4.868388-22.479118-9.07931-64.51006-4.430077a731.588846 731.588846 0 0 0-88.382382 16.217526c-57.04311 13.869428-129.333199 36.959051-149.714683 68.157437l-0.187848 0.297426C455.199981 107.850707 449.29843 131.503874 446.465059 142.931281l-0.266117 1.048816-14.292086 70.990809c-16.107947 6.449441-30.916614 24.232364-38.696643 34.845763-16.342757 22.322578-22.745236 41.154319-19.050896 55.97864a52.346916 52.346916 0 0 0 25.656876 33.342981 54.929823 54.929823 0 0 0 40.44989 4.821427l41.796131-11.036058a201.936367 201.936367 0 0 0 191.823895 139.445672h0.453965a200.871896 200.871896 0 0 0 201.12236-200.370969v-0.203502a198.977764 198.977764 0 0 0-4.696194-42.782333l53.145269-14.542549A52.456493 52.456493 0 0 0 957.01968 189.595801l0.266118-0.46962a54.914169 54.914169 0 0 0 4.758811-40.528159z m-133.54412 123.275108a153.925604 153.925604 0 0 1-154.207376 153.534255h-0.344388A154.880497 154.880497 0 0 1 527.56834 320.917055l297.817006-79.663114a152.360206 152.360206 0 0 1 3.130797 30.540919z m87.662298-105.47653a5.791973 5.791973 0 0 1-3.663031 2.567253l-76.81409 20.866758-342.509124 91.607102-64.995333 17.21938h-0.281772a7.639143 7.639143 0 0 1-5.557164-0.767045 5.056236 5.056236 0 0 1-1.878478-1.753246c2.958603-10.112472 20.115367-32.74813 28.631133-37.428671l23.167894-6.042437 19.630093-97.837387 0.140886-0.547889c2.395059-9.642853 6.856444-27.566662 16.123601-42.265752 5.588472-8.265302 41.780478-28.177167 115.745543-46.695828 63.414281-15.9201 113.444407-20.350177 125.012699-17.563768 16.045331 9.627199 38.821875 32.435051 43.59634 37.820021l57.919733 65.292758 23.042662-6.026783c9.642853-0.31308 36.004158 10.76994 43.565031 18.08035a7.952223 7.952223 0 0 1-0.907931 3.475184z" p-id="15578"></path></svg>